<?xml version="1.0" encoding="utf-8"?>
<!-- Generator: Adobe Illustrator 19.1.0, SVG Export Plug-In . SVG Version: 6.00 Build 0)  -->
<svg version="1.1" id="Layer_1" xmlns="http://www.w3.org/2000/svg" xmlns:xlink="http://www.w3.org/1999/xlink" x="0px" y="0px"
	 width="200px" height="200px" viewBox="-511 297 200 200" style="enable-background:new -511 297 200 200;" xml:space="preserve">
<style type="text/css">
	.st0{fill:#0B8599;}
</style>
<g>
	<g>
		<path class="st0" d="M-434.1,379.9c3.4,0,6.6,0.3,9.4,0.9c2.8,0.6,5.3,1.6,7.3,3c2,1.4,3.6,3.2,4.7,5.5c1.1,2.3,1.7,5.1,1.7,8.5
			c0,3.6-0.8,6.7-2.5,9.1c-1.7,2.4-4.1,4.4-7.3,6c4.4,1.3,7.8,3.5,10,6.7c2.2,3.2,3.3,7.1,3.3,11.6c0,3.6-0.7,6.8-2.1,9.5
			s-3.3,4.8-5.7,6.5c-2.4,1.7-5.1,2.9-8.2,3.7c-3.1,0.8-6.2,1.2-9.5,1.2h-35v-72.2C-468,379.9-434.1,379.9-434.1,379.9z
			 M-436.1,409.1c2.8,0,5.2-0.7,7-2c1.8-1.3,2.7-3.5,2.7-6.6c0-1.7-0.3-3.1-0.9-4.1c-0.6-1.1-1.4-1.9-2.4-2.5s-2.2-1-3.5-1.3
			c-1.3-0.2-2.7-0.4-4.1-0.4h-14.9v16.9L-436.1,409.1L-436.1,409.1z M-435.2,439.8c1.5,0,3-0.2,4.4-0.5c1.4-0.3,2.7-0.8,3.7-1.5
			c1.1-0.7,1.9-1.7,2.6-2.9c0.6-1.2,1-2.8,1-4.6c0-3.7-1-6.4-3.1-7.9c-2.1-1.6-4.9-2.4-8.3-2.4h-17.3v19.8L-435.2,439.8
			L-435.2,439.8z"/>
		<path class="st0" d="M-385,439.6c2.2,2.1,5.3,3.1,9.3,3.1c2.9,0,5.4-0.7,7.5-2.2c2.1-1.4,3.4-3,3.8-4.6h12.6
			c-2,6.3-5.1,10.7-9.3,13.4c-4.2,2.7-9.2,4-15.2,4c-4.1,0-7.8-0.7-11.1-2c-3.3-1.3-6.1-3.2-8.4-5.6c-2.3-2.4-4.1-5.3-5.3-8.7
			c-1.2-3.4-1.9-7.1-1.9-11.1c0-3.9,0.6-7.5,1.9-10.9c1.3-3.4,3.1-6.3,5.5-8.7c2.4-2.5,5.2-4.4,8.4-5.8c3.3-1.4,6.9-2.1,10.9-2.1
			c4.4,0,8.3,0.9,11.6,2.6s6,4,8.1,6.9s3.7,6.2,4.6,9.9s1.3,7.6,1,11.6h-37.7C-388.4,434.1-387.2,437.5-385,439.6z M-368.8,412.1
			c-1.7-1.9-4.3-2.8-7.8-2.8c-2.3,0-4.2,0.4-5.7,1.2s-2.7,1.7-3.6,2.9c-0.9,1.1-1.6,2.4-1.9,3.6c-0.4,1.3-0.6,2.4-0.7,3.4h23.4
			C-365.9,416.7-367.1,413.9-368.8,412.1z"/>
	</g>
	<rect x="-390.6" y="385.1" class="st0" width="29.8" height="6.3"/>
</g>
</svg>
