<?xml version="1.0" encoding="utf-8"?>
<!-- Generator: Adobe Illustrator 19.1.0, SVG Export Plug-In . SVG Version: 6.00 Build 0)  -->
<svg version="1.1" id="Layer_1" xmlns="http://www.w3.org/2000/svg" xmlns:xlink="http://www.w3.org/1999/xlink" x="0px" y="0px"
	 width="200px" height="200px" viewBox="-205 297 200 200" style="enable-background:new -205 297 200 200;" xml:space="preserve">
<style type="text/css">
	.st0{fill:#0B8599;}
	.st1{fill:none;}
</style>
<g>
	<g>
		<path class="st0" d="M-124.8,341.1c2.7,0,5.3,0.2,7.5,0.7c2.2,0.5,4.3,1.3,5.9,2.4s2.9,2.6,3.8,4.4c0.9,1.8,1.4,4.1,1.4,6.8
			c0,2.9-0.6,5.4-2,7.3c-1.4,1.9-3.3,3.5-5.9,4.8c3.5,1,6.3,2.8,8,5.4s2.6,5.7,2.6,9.3c0,2.9-0.6,5.5-1.7,7.6
			c-1.1,2.2-2.6,3.9-4.6,5.2c-1.9,1.4-4.1,2.3-6.6,3c-2.5,0.6-5,1-7.6,1H-152v-58C-152,341.1-124.8,341.1-124.8,341.1z
			 M-126.4,364.6c2.2,0,4.2-0.6,5.6-1.6c1.4-1,2.2-2.8,2.2-5.3c0-1.4-0.2-2.5-0.7-3.3c-0.5-0.9-1.1-1.5-1.9-2
			c-0.8-0.5-1.8-0.8-2.8-1c-1-0.2-2.2-0.3-3.3-0.3h-12v13.6H-126.4L-126.4,364.6z M-125.7,389.2c1.2,0,2.4-0.2,3.5-0.4
			c1.1-0.2,2.2-0.6,3-1.2c0.9-0.6,1.5-1.4,2.1-2.3c0.5-1,0.8-2.2,0.8-3.7c0-3-0.8-5.1-2.5-6.3c-1.7-1.3-3.9-1.9-6.7-1.9h-13.9v15.9
			H-125.7L-125.7,389.2z"/>
		<path class="st0" d="M-85.4,389.1c1.8,1.7,4.3,2.5,7.5,2.5c2.3,0,4.3-0.6,6-1.8c1.7-1.1,2.7-2.4,3.1-3.7h10.1
			c-1.6,5.1-4.1,8.6-7.5,10.8c-3.4,2.2-7.4,3.2-12.2,3.2c-3.3,0-6.3-0.6-8.9-1.6c-2.6-1-4.9-2.6-6.7-4.5s-3.3-4.3-4.3-7
			c-1-2.7-1.5-5.7-1.5-8.9c0-3.1,0.5-6,1.5-8.7s2.5-5.1,4.4-7c1.9-2,4.2-3.5,6.7-4.7c2.6-1.1,5.5-1.7,8.7-1.7c3.5,0,6.7,0.7,9.3,2.1
			c2.6,1.4,4.8,3.2,6.5,5.5c1.7,2.3,3,5,3.7,7.9c0.7,3,1,6.1,0.8,9.3h-30.3C-88.1,384.6-87.1,387.4-85.4,389.1z M-72.4,367
			c-1.4-1.5-3.5-2.2-6.3-2.2c-1.8,0-3.4,0.3-4.6,1c-1.2,0.6-2.2,1.4-2.9,2.3c-0.7,0.9-1.3,1.9-1.5,2.9c-0.3,1-0.5,1.9-0.6,2.7h18.8
			C-70,370.7-71,368.4-72.4,367z"/>
	</g>
	<rect x="-89.9" y="345.3" class="st0" width="23.9" height="5.1"/>
</g>
<rect x="-205" y="297" class="st1" width="200" height="200"/>
</svg>
