<svg xmlns="http://www.w3.org/2000/svg" width="200" height="200" viewBox="-49 51 200 200" enable-background="new -49 51 200 200"><style type="text/css">.st0{fill:#0B8599;}</style><path class="st0" d="M35.7 143c1.6-1.2 2.3-3.2 2.3-5.8 0-1.4-.3-2.7-.8-3.6-.5-.9-1.2-1.7-2.1-2.2s-1.9-.9-3-1.1-2.2-.3-3.4-.3h-12.7v15h13.7c2.4 0 4.4-.8 6-2zM80.7 144.6c-2 0-3.6.3-4.9 1-1.3.7-2.3 1.5-3.1 2.5-.8 1-1.3 1.9-1.6 3-.3 1.1-.5 1.9-.6 2.9h20c-.6-3-1.6-5.4-3.1-7s-3.7-2.4-6.7-2.4zM37.9 155.9c-1.8-1.4-4.2-1.9-7.1-1.9h-14.8v17h14.5c1.3 0 2.6-.2 3.8-.5 1.2-.3 2.3-.7 3.2-1.3.9-.6 1.7-1.5 2.2-2.5s.8-2.3.8-4c0-3.2-.9-5.4-2.6-6.8zM51 51c-55.2 0-100 44.8-100 100s44.8 100 100 100 100-44.8 100-100-44.8-100-100-100zm18 73h25v5h-25v-5zm-16.7 47.6c-1.2 2.3-2.8 4.1-4.9 5.6-2.1 1.4-4.4 2.3-7 3s-5.3.8-8.1.8h-30.3v-62h29.4c2.9 0 5.6.5 8.1 1 2.4.5 4.5 1.5 6.2 2.7s3.1 2.8 4 4.8c1 2 1.4 4.4 1.4 7.3 0 3.1-.7 5.7-2.1 7.8s-3.5 3.8-6.3 5.1c3.8 1.1 6.7 3 8.5 5.8 1.9 2.7 2.8 6.1 2.8 9.9.2 3.2-.4 5.9-1.7 8.2zm50.5-9.6h-32.4c.2 4 1.2 6.9 3 8.7s4.5 2.7 8 2.7c2.5 0 4.6-.4 6.4-1.6 1.8-1.2 2.9-2.7 3.3-3.7h10.9c-1.7 5-4.4 9-8 11.3-3.6 2.3-7.9 3.3-13 3.3-3.5 0-6.7-.6-9.5-1.8-2.8-1.1-5.2-2.8-7.2-4.8-2-2.1-3.5-4.6-4.6-7.5s-1.6-6.1-1.6-9.5.5-6.5 1.6-9.4c1.1-2.9 2.7-5.4 4.7-7.5 2-2.1 4.4-3.8 7.2-5 2.8-1.2 5.9-1.8 9.3-1.8 3.8 0 7.1.7 10 2.2 2.8 1.5 5.2 3.5 7 5.9 1.8 2.5 3.1 5.3 3.9 8.5 1 3.2 1.2 7 1 10z"/></svg>