<?xml version="1.0" encoding="utf-8"?>
<!-- Generator: Adobe Illustrator 19.1.0, SVG Export Plug-In . SVG Version: 6.00 Build 0)  -->
<svg version="1.1" id="Layer_1" xmlns="http://www.w3.org/2000/svg" xmlns:xlink="http://www.w3.org/1999/xlink" x="0px" y="0px"
	 width="200px" height="200px" viewBox="-49 51 200 200" style="enable-background:new -49 51 200 200;" xml:space="preserve">
<style type="text/css">
	.st0{fill:#0B8599;}
</style>
<g>
	<path class="st0" d="M35.7,143c1.6-1.2,2.3-3.2,2.3-5.8c0-1.4-0.3-2.7-0.8-3.6c-0.5-0.9-1.2-1.7-2.1-2.2s-1.9-0.9-3-1.1
		s-2.2-0.3-3.4-0.3H16v15h13.7C32.1,145,34.1,144.2,35.7,143z"/>
	<path class="st0" d="M80.7,144.6c-2,0-3.6,0.3-4.9,1c-1.3,0.7-2.3,1.5-3.1,2.5c-0.8,1-1.3,1.9-1.6,3c-0.3,1.1-0.5,1.9-0.6,2.9h20
		c-0.6-3-1.6-5.4-3.1-7S83.7,144.6,80.7,144.6z"/>
	<path class="st0" d="M37.9,155.9c-1.8-1.4-4.2-1.9-7.1-1.9H16v17h14.5c1.3,0,2.6-0.2,3.8-0.5c1.2-0.3,2.3-0.7,3.2-1.3
		c0.9-0.6,1.7-1.5,2.2-2.5s0.8-2.3,0.8-4C40.5,159.5,39.6,157.3,37.9,155.9z"/>
	<path class="st0" d="M51,51C-4.2,51-49,95.8-49,151S-4.2,251,51,251s100-44.8,100-100S106.2,51,51,51z M69,124h25v5H69V124z
		 M52.3,171.6c-1.2,2.3-2.8,4.1-4.9,5.6c-2.1,1.4-4.4,2.3-7,3s-5.3,0.8-8.1,0.8H2v-62h29.4c2.9,0,5.6,0.5,8.1,1
		c2.4,0.5,4.5,1.5,6.2,2.7s3.1,2.8,4,4.8c1,2,1.4,4.4,1.4,7.3c0,3.1-0.7,5.7-2.1,7.8s-3.5,3.8-6.3,5.1c3.8,1.1,6.7,3,8.5,5.8
		c1.9,2.7,2.8,6.1,2.8,9.9C54.2,166.6,53.6,169.3,52.3,171.6z M102.8,162H70.4c0.2,4,1.2,6.9,3,8.7s4.5,2.7,8,2.7
		c2.5,0,4.6-0.4,6.4-1.6c1.8-1.2,2.9-2.7,3.3-3.7H102c-1.7,5-4.4,9-8,11.3c-3.6,2.3-7.9,3.3-13,3.3c-3.5,0-6.7-0.6-9.5-1.8
		c-2.8-1.1-5.2-2.8-7.2-4.8c-2-2.1-3.5-4.6-4.6-7.5s-1.6-6.1-1.6-9.5s0.5-6.5,1.6-9.4c1.1-2.9,2.7-5.4,4.7-7.5c2-2.1,4.4-3.8,7.2-5
		c2.8-1.2,5.9-1.8,9.3-1.8c3.8,0,7.1,0.7,10,2.2c2.8,1.5,5.2,3.5,7,5.9c1.8,2.5,3.1,5.3,3.9,8.5C102.8,155.2,103,159,102.8,162z"/>
</g>
</svg>
