<?xml version="1.0" encoding="utf-8"?>
<!-- Generator: Adobe Illustrator 19.1.0, SVG Export Plug-In . SVG Version: 6.00 Build 0)  -->
<svg version="1.1" id="Layer_1" xmlns="http://www.w3.org/2000/svg" xmlns:xlink="http://www.w3.org/1999/xlink" x="0px" y="0px"
	 width="200px" height="200px" viewBox="0 0 200 200" style="enable-background:new 0 0 200 200;" xml:space="preserve">
<style type="text/css">
	.st0{fill:#0B8599;}
	.st1{fill:none;stroke:#0B8599;stroke-width:9;stroke-miterlimit:10;}
</style>
<path class="st0" d="M80.9,76c-1.1,0.7-2.3,1.5-3.3,2.4C77,78.9,76.3,79,75.7,80h-0.3c0.1,0,0.2-0.2,0.3-0.3
	C77.4,78.3,79.1,77.1,80.9,76z"/>
<path class="st0" d="M124.5,80h-0.3c-0.3,0-0.6-0.6-0.9-0.8c-0.3-0.3-0.6-0.5-0.9-0.8c-1.1-0.9-2.3-1.8-3.5-2.5
	c1.9,1.1,3.7,2.4,5.4,3.9C124.3,79.8,124.5,80,124.5,80z"/>
<path class="st0" d="M164.6,26.8h-16.9c-3.6,0-6.6,2.9-6.6,6.6v16.9c0,3.6,2.9,6.6,6.6,6.6h16.9c3.6,0,6.6-2.9,6.6-6.6V33.3
	C171.1,29.7,168.2,26.8,164.6,26.8z"/>
<rect x="32.1" y="15.3" class="st0" width="6" height="41"/>
<rect x="43.1" y="15.3" class="st0" width="6" height="41"/>
<rect x="54.1" y="15.3" class="st0" width="6" height="41"/>
<path class="st0" d="M100,70.4c-6.9,0-13.4,1.9-18.9,5.4c5.5-3.3,12-5.2,18.9-5.2c6.9,0,13.3,1.9,18.9,5.2
	C113.3,72.3,106.9,70.4,100,70.4z"/>
<path class="st0" d="M185,70h-50.3c-9.1-8-21.3-13.7-34.7-13.7C86.6,56.3,74.4,62,65.3,70H16v10h41.3c-5.2,8-8.2,17.5-8.2,27.7
	c0,28.1,22.8,50.9,50.9,50.9s50.9-22.8,50.9-50.9c0-10.2-3-19.7-8.2-27.7H185V70z M100,144.7c-20.4,0-37-16.6-37-37
	c0-11,4.8-20.9,12.4-27.7c0.1-0.1,0.2-0.2,0.3-0.3c1.6-1.4,3.3-2.7,5.2-3.8c0.1,0,0.1-0.1,0.2-0.1c5.5-3.5,12-5.4,18.9-5.4
	c6.9,0,13.3,1.9,18.9,5.4c1.9,1.1,3.7,2.4,5.4,3.9c0.1,0.1,0.2,0.2,0.3,0.3c7.6,6.8,12.4,16.7,12.4,27.7
	C137,128.1,120.4,144.7,100,144.7z"/>
<circle class="st0" cx="100.4" cy="107.6" r="29.2"/>
<path class="st1" d="M149.9,187H50.1C29.6,187,13,170.4,13,149.9V50.1C13,29.6,29.6,13,50.1,13h99.7c20.5,0,37.1,16.6,37.1,37.1
	v99.7C187,170.4,170.4,187,149.9,187z"/>
</svg>
