<?xml version="1.0" encoding="utf-8"?>
<!-- Generator: Adobe Illustrator 19.1.0, SVG Export Plug-In . SVG Version: 6.00 Build 0)  -->
<svg version="1.1" id="Layer_1" xmlns="http://www.w3.org/2000/svg" xmlns:xlink="http://www.w3.org/1999/xlink" x="0px" y="0px"
	 width="1530.4px" height="364px" viewBox="0 0 1530.4 364" style="enable-background:new 0 0 1530.4 364;" xml:space="preserve">
<style type="text/css">
	.st0{fill:#FFFFFF;}
</style>
<g>
	<polygon class="st0" points="766.9,192 761.6,207 772.3,207 767,192 	"/>
	<g>
		<path class="st0" d="M16.8,122v120h1500V122H16.8z M769.2,143h7l6.2,17h-6.7l-0.6-2h-4.8l-0.5,2h-6.7L769.2,143z M741.8,143h7v17
			h-7V143z M733.8,208.8c0,9.9-5.5,16.6-16.5,16.6c-5.5,0-9.8-2.6-12.8-6.9l7.4-7.4c1.4,1.9,3.5,4,5.2,4c3.8,0,3.7-4.3,3.7-6.9v-31
			h13V208.8z M778.9,224l-3.2-8H758l-3.4,8H741l19-47h14l18.6,47H778.9z M794.8,160l-2.3-7.1c-0.2-0.7-0.3-0.9-0.4-1.9h-0.2
			c0,1-0.1,1.2-0.2,1.8L791,160h-6.1l2.8-17h6.5l2.4,9h0.2c0.1-1,0.2-1.5,0.4-2.2l2-6.8h6.4l2.8,17h-6.1l-0.9-9h-0.1
			c-0.1,0-0.2,0.9-0.4,1.5l-2.5,7.5H794.8z M841.8,214v10h-42.4l23.4-37h-19.1v-10h40.6l-23.3,37H841.8z"/>
		<path class="st0" d="M773.3,151.1c-0.2-0.7-0.3-1.1-0.4-2.1h-0.2l-1.1,5h2.5L773.3,151.1z"/>
	</g>
</g>
</svg>
