<?xml version="1.0" encoding="utf-8"?>
<!-- Generator: Adobe Illustrator 19.1.0, SVG Export Plug-In . SVG Version: 6.00 Build 0)  -->
<svg version="1.1" id="Layer_1" xmlns="http://www.w3.org/2000/svg" xmlns:xlink="http://www.w3.org/1999/xlink" x="0px" y="0px"
	 width="200px" height="200px" viewBox="0 0 200 200" style="enable-background:new 0 0 200 200;" xml:space="preserve">
<style type="text/css">
	.st0{fill:#0B8599;}
	.st1{fill:none;stroke:#0B8599;stroke-width:5;stroke-miterlimit:10;}
</style>
<g>
	<path class="st0" d="M46.4,46.2h24.2c0.4,1.1,0.6,2.1,0.6,3.1c0,0.9-0.2,1.5-0.5,1.9c-0.4,0.4-1,0.5-1.9,0.5L64,51.8
		c-0.3,4.9-0.4,13.1-0.4,24.5v40.2c0,5.6-0.5,9.8-1.5,12.6c-1,2.8-2.9,5.1-5.6,6.8s-6.8,2.6-12.2,2.6c-3.5,0-5.7-0.3-6.8-1
		c-1.1-0.7-1.6-1.8-1.6-3.5c0-2.1,0.6-4,1.8-5.7c6.2,2,10.1,2.6,11.7,1.6c1.6-0.9,2.4-5.6,2.4-13.9V75.7c0-11-0.1-19-0.4-24h-6.6
		c-0.5-1.2-0.7-2.3-0.7-3.4c0-0.8,0.2-1.3,0.6-1.6C44.9,46.4,45.5,46.2,46.4,46.2z"/>
	<path class="st0" d="M100.4,115.2c-3,1.8-6.1,3.1-9.3,4s-6.3,1.4-9.3,1.4c-4.8,0-8.4-1.1-10.8-3.4c-2.4-2.3-3.5-5.6-3.5-10.1
		c0-5.5,2-9.7,5.9-12.6c3.9-2.9,9.9-4.4,18.1-4.4h7.9c-0.2-6.3-1.1-10.7-2.7-13.2c-1.6-2.5-4.4-3.7-8.5-3.7c-2.1,0-4.2,0.2-6.2,0.6
		c-1,2.1-1.7,3.2-1.9,3.3c-0.2,0.1-1.2,0.5-3.1,0.9c-1.9,0.5-3.2,0.4-3.9-0.3c-0.7-0.7-1.5-1.9-2.3-3.6c-0.8-1.8-1.2-3.2-1.2-4.2
		c0-0.7,0.3-1.3,0.9-1.7c0.6-0.4,3-0.9,7.2-1.5c4.2-0.6,8.7-0.9,13.5-0.9c6.3,0,11,1.1,14,3.3c3,2.2,4.5,6.2,4.5,12v16.5
		c0,7.7,0.3,12.3,1,14c0.7,1.7,1.8,2.4,3.3,2c0.4,0.8,0.6,1.6,0.6,2.3c0,1.2-0.8,2.1-2.3,2.8c-1.5,0.6-3.6,1-6.1,1
		c-1.3,0-2.2-0.2-2.9-0.5C102.9,119.3,101.8,117.8,100.4,115.2z M99.3,97.1c-3.1-0.5-6.3-0.8-9.6-0.8c-4.1,0-6.9,0.7-8.6,2
		c-1.6,1.4-2.4,3.5-2.4,6.4c0,2.9,0.7,5,2.2,6.5s3.7,2.2,6.7,2.2c2.4,0,4.6-0.5,6.6-1.4c2-0.9,3.4-2.2,4.1-3.9c0.7-1.7,1-4.3,1-7.9
		V97.1z"/>
	<path class="st0" d="M159.6,69.9c0,1.5-0.9,3.6-2.6,6.1s-4.3,6.4-7.6,11.5c-3.4,5.1-6.7,10.3-9.9,15.4c-3.2,5.1-4.9,8.6-5,10.6h9.7
		c4.4,0,9.7-1.2,16-3.7c0.9,1.9,1.4,3.8,1.4,5.7c0,1.5-0.4,2.5-1.3,3.1c-0.9,0.6-2.7,0.9-5.4,0.9h-33.1c-2.3,0-3.4-1-3.4-2.9
		c0-1.1,0.5-2.3,1.4-3.7c0.9-1.4,3.9-5.7,8.9-12.8c5-7.1,8.8-12.7,11.4-16.9c2.6-4.2,4.4-7.6,5.4-10.3h-13.2
		c-2.4,0-6.2,1.3-11.4,3.9c-1.5-2.1-2.3-4.3-2.3-6.4c0-1.3,0.4-2.2,1.1-2.7c0.7-0.6,2.1-0.9,4-0.9h32c1.5,0,2.6,0.2,3.2,0.7
		C159.3,68,159.6,68.8,159.6,69.9z"/>
</g>
<circle class="st1" cx="96.4" cy="95.6" r="84.8"/>
</svg>
