<?xml version="1.0" encoding="utf-8"?>
<!-- Generator: Adobe Illustrator 19.1.0, SVG Export Plug-In . SVG Version: 6.00 Build 0)  -->
<svg version="1.1" id="Layer_1" xmlns="http://www.w3.org/2000/svg" xmlns:xlink="http://www.w3.org/1999/xlink" x="0px" y="0px"
	 width="200px" height="200px" viewBox="0 0 200 200" style="enable-background:new 0 0 200 200;" xml:space="preserve">
<style type="text/css">
	.st0{fill:#0B8599;}
</style>
<path class="st0" d="M106.9,147.9c0,0,2.1-10.4,13.3-17.1c11.3-6.7,22.9,4.4,20.2,15.6c-2.7,11.3-16.5,36.1-33.6,47.7
	c-17.1,11.7-21.9-11.7-24-19.6c-2.1-7.9-4.4-18.8-6.7-22.1c-2.3-3.3-5.4-3.3-5.4-3.3l-5,3.5l-4-4.8c0,0,9.4-7.7,12.5-10.8
	c3.1-3.1,8.8-8.3,15.8-5.6c7.1,2.7,6,19,8.3,26.9c2.3,7.9,3.8,16.9,8.1,14.2c4.4-2.7,11.3-14.8,11.3-20S114.2,145,106.9,147.9z"/>
</svg>
