<?xml version="1.0" encoding="utf-8"?>
<!-- Generator: Adobe Illustrator 19.1.0, SVG Export Plug-In . SVG Version: 6.00 Build 0)  -->
<svg version="1.1" id="Layer_1" xmlns="http://www.w3.org/2000/svg" xmlns:xlink="http://www.w3.org/1999/xlink" x="0px" y="0px"
	 width="200px" height="200px" viewBox="-49 51 200 200" style="enable-background:new -49 51 200 200;" xml:space="preserve">
<style type="text/css">
	.st0{fill:#0B8599;}
</style>
<path class="st0" d="M51,51C-4.2,51-49,95.8-49,151S-4.2,251,51,251s100-44.8,100-100S106.2,51,51,51z M91.5,140.5
	c-2.7,11.3-16.5,36.1-33.6,47.7c-17.1,11.7-21.9-11.7-24-19.6c-2.1-7.9-4.4-18.8-6.7-22.1c-2.3-3.3-5.4-3.3-5.4-3.3l-5,3.5l-4-4.8
	c0,0,9.4-7.7,12.5-10.8c3.1-3.1,8.8-8.3,15.8-5.6c7.1,2.7,6,19,8.3,26.9s3.8,16.9,8.1,14.2c4.4-2.7,11.3-14.8,11.3-20
	s-3.8-7.5-11-4.6c0,0,2.1-10.4,13.3-17.1C82.5,118.2,94.2,129.2,91.5,140.5z"/>
</svg>
