<?xml version="1.0" encoding="utf-8"?>
<!-- Generator: Adobe Illustrator 19.1.0, SVG Export Plug-In . SVG Version: 6.00 Build 0)  -->
<svg version="1.1" id="Layer_1" xmlns="http://www.w3.org/2000/svg" xmlns:xlink="http://www.w3.org/1999/xlink" x="0px" y="0px"
	 width="200px" height="200px" viewBox="-205 297 200 200" style="enable-background:new -205 297 200 200;" xml:space="preserve">
<style type="text/css">
	.st0{fill:#0B8599;}
	.st1{fill:none;}
</style>
<path class="st0" d="M-100.7,364.5c0,0,1.6-7.9,10.2-13.1c8.6-5.1,17.5,3.4,15.4,11.9c-2.1,8.6-12.6,27.6-25.7,36.4
	c-13.1,8.9-16.7-8.9-18.3-15s-3.4-14.4-5.1-16.9c-1.8-2.5-4.1-2.5-4.1-2.5l-3.8,2.7l-3.1-3.7c0,0,7.2-5.9,9.6-8.3
	c2.4-2.4,6.7-6.3,12.1-4.3c5.4,2.1,4.6,14.5,6.3,20.6c1.8,6,2.9,12.9,6.2,10.9c3.4-2.1,8.6-11.3,8.6-15.3
	C-92.4,364.1-95.1,362.3-100.7,364.5z"/>
<rect x="-205" y="297" class="st1" width="200" height="200"/>
</svg>
