<svg xmlns="http://www.w3.org/2000/svg" width="200" height="200" viewBox="-49 51 200 200" enable-background="new -49 51 200 200"><style type="text/css">.st0{fill:#0B8599;}</style><path class="st0" d="M51 51c-55.2 0-100 44.8-100 100s44.8 100 100 100 100-44.8 100-100-44.8-100-100-100zm40.5 89.5c-2.7 11.3-16.5 36.1-33.6 47.7-17.1 11.7-21.9-11.7-24-19.6-2.1-7.9-4.4-18.8-6.7-22.1-2.3-3.3-5.4-3.3-5.4-3.3l-5 3.5-4-4.8s9.4-7.7 12.5-10.8c3.1-3.1 8.8-8.3 15.8-5.6 7.1 2.7 6 19 8.3 26.9s3.8 16.9 8.1 14.2c4.4-2.7 11.3-14.8 11.3-20s-3.8-7.5-11-4.6c0 0 2.1-10.4 13.3-17.1 11.4-6.7 23.1 4.3 20.4 15.6z"/></svg>