<svg id="Layer_1" data-name="Layer 1" xmlns="http://www.w3.org/2000/svg" viewBox="0 0 657.31 401.81"><defs><style>.cls-1{fill:#288aa5;}.cls-2{fill:#414042;}</style></defs><title>wordmark</title><path class="cls-1" d="M256.7,222.5A61.49,61.49,0,0,0,233.28,217a81.55,81.55,0,0,0-24,3.16c-14.32,4-28,10.37-41,17.44a263,263,0,0,0-66.44,51.65c-35.11,37.54-80.4,105-38.37,153,9.06,10.35,21.51,19.71,35.27,22.4,14.37,2.81,28.34-1.89,40.63-9.18s23.45-17.07,34.14-26.7,20.64-19.5,30.26-29.95a488.39,488.39,0,0,0,91.22-142,480,480,0,0,0,25.56-80.27q4.57-20.37,7.29-41.1c1.82-13.89,3.81-28.38,3.26-42.42a36.11,36.11,0,0,0-6.11-19.42c-1.57-2.32-11.19-12.47-14.49-9.42-23.17,21.39-38.2,50.7-43,81.79-4.81,30.92-1.24,69.84,27.55,88.24,11.59,7.41,29.4,10.79,39.52-.71,2.37-2.69-11.74-14.82-14.34-11.86-3.37,3.83-9.33,4.75-14.18,4.87a43.92,43.92,0,0,1-8.37-.61,51.58,51.58,0,0,1-5.54-1.34c0.11,0.47,1.37,2,1.12.64-0.21-1.16-1.87-2.79-2.45-3.9A54.18,54.18,0,0,1,287,212a108.8,108.8,0,0,1-4-20.37,138.5,138.5,0,0,1,15.28-78.72A133.51,133.51,0,0,1,326,77l-14.49-9.42c3.7,5.46,3.86,12.59,3.72,19-0.15,6.57-.67,13.15-1.23,19.7q-1.7,20.08-5.17,40a469.25,469.25,0,0,1-20.33,77c-17.8,49.93-43.81,97.54-77.18,138.79a464.83,464.83,0,0,1-54.54,56.89c-18.87,16.58-45.67,40.9-73.12,32-9.81-3.17-15.05-12.27-18.47-21.5-5-13.48-4.15-28.66-.56-42.37,7-26.61,23.43-51.37,40.74-72.41a270.91,270.91,0,0,1,58.94-53.28c23.08-15.37,49.36-30,77.42-32.81a80.78,80.78,0,0,1,20.12.4c3.18,0.51-4-6-5.09-6.45h0Z" transform="translate(-46.52 -63.59)"/><path class="cls-1" d="M567.3,156.08a18.29,18.29,0,0,0-8.06,8.5c-1.06,2.38-.77,5.49,1.79,6.84,2.18,1.15,5.7.76,6.84-1.79a14.7,14.7,0,0,1,.94-1.8c0.09-.14.88-1.21,0.16-0.31q0.32-.4.67-0.77t0.72-.72c0.1-.09,1-0.8.43-0.39s0.38-.24.49-0.31c0.34-.22.7-0.41,1.06-0.6a5,5,0,0,0,1.79-6.84,5.11,5.11,0,0,0-6.84-1.79h0Z" transform="translate(-46.52 -63.59)"/><path class="cls-1" d="M366.1,187.34c-10.89-5-21.37-1.63-30,6.15-7.78,7-15.53,19-14.07,30,1.41,10.54,14.73,19.91,24.08,12.51,5.23-4.14,8.88-10.7,12.82-16,4.92-6.62,9.7-13.34,14.56-20l-10.26-8.49c-5.23,7.15-11.45,16.08-8.9,25.44,2.26,8.29,10.71,16.61,19.39,17.75,9.7,1.28,16.36-10.36,21.86-16.63l24.33-27.72-11-7.18c3.49,8.76,8.37,20.67,3,29.7a14.62,14.62,0,0,1-7.45,6.09,15.85,15.85,0,0,1-4.34,1,20.54,20.54,0,0,0-2.45-.11c-0.62.53,0.23-1.09,1.49,1.33l-8.51-.58c9.36,9.81,24.95,15.55,37.49,8.13,12.21-7.22,17.09-32,34.18-29.74l-9.18-7.59a124.64,124.64,0,0,1,1.52,31.78c-0.25,3.88,10.86,12.45,11.88,7.72,2.18-10.13,5.21-22.88,16.66-26a12.32,12.32,0,0,1,3.64-.49c1.44,0,2.38.88,1.2-.56,1.28,1.56,1.36,4.55,1.36,6.43,0,5.09-1.44,10.13-3.06,14.91L498,232.78a32.63,32.63,0,0,1,27.4-29.36l-9.5-6.24c3.54,6.6-1.24,14.77.53,21.88A22,22,0,0,0,529.56,234c7.7,2.78,12.1-3.67,16.31-9.12a178,178,0,0,0,14.88-22.77l-10.74-7c1.55,7.46-3.35,14.47-1.1,22,1.77,6,7.47,12,13.71,13.21,7.55,1.45,12.89-6.06,17.67-10.7l19.93-19.37-10-5.74c4.35,8.22,2.46,20.4-1.9,28.26l11,8.06c4.39-11.21,11.94-23.24,22-30.17,1.4-1,3.18-1.41,4.52-2.34q3.64,0.13,0-1.45-2.54-2.57-1.45-.08c-0.42,2.23.49,5.17,0.19,7.59-0.91,7.44-2.71,14.9-4.34,22.21a452.06,452.06,0,0,1-12.18,44c-5,14.92-11.73,29.23-15.39,44.51-0.71,3,8.07,10.51,10.18,7.49,10.6-15.25,15.7-34.85,20.86-52.57a434.9,434.9,0,0,0,12.51-55.81c1-6.35.62-13.07-3.36-18.41s-11.35-9.89-18.12-7c-13.12,5.6-22.07,22.07-26.72,34.68-1.23,3.33,9.31,11.16,11,8.06,5.31-10,6.43-23.86,1-34.1-1.17-2.22-7.21-8.47-10-5.74-8.75,8.42-17.37,17-26.26,25.26a28.05,28.05,0,0,1-2.42,2.15,5.7,5.7,0,0,1-3.05,1.5q-2.22.18,0.29,1c2.26,1.27.9-.3,0.78-2.09a14.14,14.14,0,0,1,.12-2.51c0.66-5.79,2.78-10.74,1.56-16.66-0.45-2.18-8.75-10.58-10.74-7A181.08,181.08,0,0,1,540,209.73c-3.2,4.53-6.81,10.8-11.43,14a3,3,0,0,1-1.53.89q-2.16.44,1.17,2s-0.93-2.71-1-2.9c-0.56-2.65,0-5.33.32-8,0.72-5.55.94-10.51-1.73-15.59-1.6-3-5.81-6.79-9.5-6.24-15.47,2.3-28.5,15.56-30,31.26-0.35,3.71,10.08,12.33,11.66,7.57,2.27-6.86,4.2-14.6,2.07-21.75-2.19-7.38-8.92-13.7-16.24-15.9-6.77-2-14.22.21-19.23,5.08-6.09,5.93-8.13,15-9.95,23l11.88,7.72a130.73,130.73,0,0,0-2.37-34.15c-0.69-3.65-5.73-7.13-9.18-7.59-14.46-1.93-21.31,12.11-28.44,21.91-3.69,5.07-8.17,9.21-14.45,10.58-4.83,1-11.3.76-14.88-3.06-1.5-1.6-4.61-4.22-7.07-4.07-2.15.14-2.34,1.71-1.44,3.49,5.28,10.48,18.53,15.84,28.82,9.26,13.29-8.5,7.16-27,2.59-38.73-0.94-2.41-7.91-10.62-11-7.18Q392.54,199.82,376,218.23c-2.27,2.52-4.51,5.29-8,6.07-2.25.5-2.65-1.55-2.84-4.26-0.54-7.42,4.35-14.28,8.32-20.07,2.28-3.32-7.88-11.54-10.26-8.49-6.82,8.74-13.66,17.47-20.39,26.28-2.62,3.42-5.39,8.16-9.46,10-0.47.22-2.6,0.49-2.79,0.74q3.72,4.45,2.8,1.92a6.78,6.78,0,0,1-.28-1.11,34.74,34.74,0,0,1-.12-6c1.78-14.89,16.87-37.66,34.39-32.92,2.53,0.69-.4-2.73-1.25-3.12h0Z" transform="translate(-46.52 -63.59)"/><path class="cls-1" d="M626.28,233.67c21.19-1.78,58.63-13.63,55.07-41.19-0.44-3.38-5.51-6.69-8.58-7.09-10.12-1.31-17.41,6.29-20.59,15.17-3,8.47-6,20.76-1.94,29.34,4.32,9,14.15,14,23.88,13.66,10.1-.38,21.15-2.09,29.27-8.47,2.37-1.86-5.72-8.9-8.25-7.65-6.64,3.29-13.85,4.51-21.15,5.3-3.64.39-7.4,1-11.07,0.61a8.12,8.12,0,0,1-2.17-.35q-1.43-.35-0.11,0c-0.9-1.3-.8-3.93-0.81-5.4-0.11-11.52,3.94-34.76,19.77-33L671,187.49c3.8,25.63-28.31,37.39-47.86,42.54-1.53.4,2,3.74,3.1,3.64h0Z" transform="translate(-46.52 -63.59)"/><path class="cls-1" d="M583.31,272.53c1.1,8.83,3.48,17.59,5.34,26.29,1.89,8.85,3.85,17.68,5.79,26.51,0.24,1.11,4.83,5.72,5.77,3.76a89.56,89.56,0,0,1,15.95-23.24c6.55-6.84,14.37-11.73,22-17.25,1.15-.84-2.59-3.79-3.7-3.43-17.84,5.84-32.26,22.62-39.88,39.24l5.77,3.76c-4.15-17.82-7.41-36.25-13-53.68-0.34-1.07-4.32-4.15-4.05-2h0Z" transform="translate(-46.52 -63.59)"/><path class="cls-2" d="M318,284.26H329.3a15.46,15.46,0,0,1,6.28,1.39,15,15,0,0,1,3.07,1.89,12.55,12.55,0,0,1,2.59,2.8A14,14,0,0,1,343,294.1a17.9,17.9,0,0,1,0,9.65,14,14,0,0,1-1.78,3.77,12.54,12.54,0,0,1-2.59,2.8,15,15,0,0,1-6.28,2.94,15.34,15.34,0,0,1-3.06.33H318V284.26Zm3.48,26.11h6.63a15.86,15.86,0,0,0,4.68-.66,10,10,0,0,0,3.73-2.05,9.63,9.63,0,0,0,2.49-3.54,15.18,15.18,0,0,0,0-10.36,9.62,9.62,0,0,0-2.49-3.54,10,10,0,0,0-3.73-2.05,15.86,15.86,0,0,0-4.68-.66h-6.63v22.87Z" transform="translate(-46.52 -63.59)"/><path class="cls-2" d="M392.74,314.34a15.89,15.89,0,0,1-6.15-1.16,14.77,14.77,0,0,1-4.85-3.21,14.4,14.4,0,0,1-3.19-4.89,17.18,17.18,0,0,1,0-12.31,14.41,14.41,0,0,1,3.19-4.89,14.77,14.77,0,0,1,4.85-3.21,16.89,16.89,0,0,1,12.31,0,14.78,14.78,0,0,1,4.85,3.21,14.44,14.44,0,0,1,3.19,4.89,17.2,17.2,0,0,1,0,12.31,14.43,14.43,0,0,1-3.19,4.89,14.78,14.78,0,0,1-4.85,3.21A15.9,15.9,0,0,1,392.74,314.34Zm0-3.23a11.38,11.38,0,0,0,4.7-1,11.07,11.07,0,0,0,3.67-2.61,11.93,11.93,0,0,0,2.38-3.87,13.67,13.67,0,0,0,0-9.49,12,12,0,0,0-2.38-3.87,11.1,11.1,0,0,0-3.67-2.61,12.07,12.07,0,0,0-9.41,0,11.07,11.07,0,0,0-3.67,2.61,11.93,11.93,0,0,0-2.38,3.87,13.69,13.69,0,0,0,0,9.49,11.91,11.91,0,0,0,2.38,3.87,11,11,0,0,0,3.67,2.61A11.38,11.38,0,0,0,392.74,311.11Z" transform="translate(-46.52 -63.59)"/><path class="cls-2" d="M440.1,284.26H444l6.67,24.37h0.08l7.21-24.37h3.9L469,308.62h0.08l6.8-24.37h3.65l-8.62,29.34h-3.77l-7.25-24.86h-0.08l-7.29,24.86h-3.81Z" transform="translate(-46.52 -63.59)"/><path class="cls-2" d="M513.24,284.26h4.39l17,24.37h0.08V284.26h3.48v29.34h-4.39l-17-24.37h-0.08v24.37h-3.48V284.26Z" transform="translate(-46.52 -63.59)"/></svg>